PathFileType	4	(X/Y/Z)	D:\TRACE\v60_Jaco2_6-2-23\BothDRS_Motion3_10-platform.trc
DataRate	CameraRate	NumFrames	NumMarkers	Units	OrigDataRate	OrigDataStartFrame	OrigNumFrames
100.00	100.00	      30	5	mm	100.00	6126	      7000
Frame#	Time	Left_Front			Right_Front			Left_Aft			Right_Aft			Post			
		X1	Y1	Z1	X2	Y2	Z2	X3	Y3	Z3	X4	Y4	Z4	X5	Y5	Z5	

6126	61.250	-781.35504	23.61399	-648.03333	789.27826	22.16872	-624.61023	-712.14301	1.86000	488.84561	702.25439	-3.25006	591.40692	13.50395	1328.14246	-932.31445	
6127	61.260	-780.95160	23.13551	-648.35059	789.53076	21.98794	-624.50970	-712.03583	2.07865	488.70416	702.42786	-2.77636	591.48761	13.61525	1327.42505	-933.32208	
6128	61.270	-780.89197	22.95076	-648.29108	789.61163	21.62248	-624.75116	-711.65167	2.07568	488.83902	702.45551	-2.19251	591.74628	13.56039	1326.90698	-933.84766	
6129	61.280	-780.56384	23.03224	-647.68878	789.79468	21.10744	-624.87708	-711.79962	3.00023	488.51175	702.54181	-1.97580	591.66425	14.14069	1326.20129	-934.75446	
6130	61.290	-780.33466	22.67329	-647.54718	790.03131	20.64649	-624.90607	-711.63678	3.31102	488.47699	702.77740	-1.92749	591.02246	14.16238	1325.55298	-935.68933	
6131	61.300	-780.25616	22.47237	-647.60309	790.25421	20.29451	-624.90234	-711.40857	3.62242	488.35999	703.14990	-1.44397	591.04962	14.21622	1325.35449	-936.70691	
6132	61.310	-780.05786	22.15914	-647.69373	790.51422	19.98908	-624.93353	-711.16034	3.90351	488.33026	703.33636	-1.25745	591.05994	14.29299	1325.11694	-937.44910	
6133	61.320	-779.89337	21.92476	-647.78973	790.79956	19.76190	-624.87469	-710.97009	4.18936	488.35840	703.59576	-0.84842	591.43195	15.09941	1324.66516	-938.41766	
6134	61.330	-779.76019	21.61071	-647.88025	790.94427	19.45244	-625.04980	-710.45721	3.83326	488.24353	703.78217	-0.56032	591.34198	15.38349	1323.79163	-939.24640	
6135	61.340	-779.33020	21.02268	-648.04785	791.15094	19.07803	-625.20471	-710.29041	3.84288	488.18411	704.12604	-0.17843	591.20166	15.32652	1323.44653	-939.93512	
6136	61.350	-778.89972	20.59734	-648.07629	791.32434	18.76384	-625.34552	-710.05609	4.13106	488.18225	704.35736	0.06163	591.09100	15.46792	1323.00220	-940.68799	
6137	61.360	-778.58087	20.34691	-648.01056	791.57385	18.53723	-625.41266	-709.77985	4.47849	488.07880	704.75641	0.40357	591.00867	15.62764	1322.65271	-941.46149	
6138	61.370	-778.38690	20.12681	-647.98877	791.64886	18.28947	-625.53387	-709.62695	4.76756	487.97348	704.88116	0.55780	590.99969	15.84159	1322.24500	-942.04358	
6139	61.380	-778.33105	19.79243	-648.14893	791.89832	18.00063	-625.61920	-709.50476	4.83270	487.89014	704.88440	0.63704	590.96497	16.12544	1321.68726	-942.44080	
6140	61.390	-778.36749	19.35125	-648.47223	792.05847	17.82390	-625.63281	-709.39020	4.92816	487.83286	704.93890	0.82015	590.87341	16.29832	1321.24255	-942.66248	
6141	61.400	-778.28143	19.20053	-648.55011	792.24561	17.69922	-625.69440	-709.19684	5.00524	487.83002	705.16486	1.09673	590.84564	16.28585	1320.74573	-943.22296	
6142	61.410	-778.11267	19.06351	-648.63806	792.33160	17.47556	-625.87469	-708.88434	5.22619	487.73538	705.51947	1.38392	590.75616	16.36930	1320.50977	-943.70581	
6143	61.420	-778.05225	18.73935	-648.75317	792.62756	17.21434	-625.97528	-708.60565	5.51796	487.64520	705.65356	1.51330	590.64130	16.78348	1320.31677	-944.31506	
6144	61.430	-777.96832	18.43913	-648.91742	792.73792	17.02995	-626.09949	-708.41888	5.71285	487.59692	705.74493	1.76789	590.57910	17.19378	1319.89209	-944.81396	
6145	61.440	-777.79614	18.19496	-649.04742	792.77972	16.40552	-626.18463	-708.26465	5.91081	487.61996	705.85541	2.14929	590.49457	17.09614	1319.05603	-945.48456	
6146	61.450	-777.66937	17.80902	-649.18158	792.90607	16.05845	-626.19745	-708.12372	6.15844	487.63126	706.01825	2.34141	590.38287	17.31151	1318.48035	-946.05273	
6147	61.460	-777.56348	17.52543	-649.10046	793.16553	15.83412	-626.28076	-707.99713	6.31576	487.60587	706.17365	2.70108	590.27039	17.52747	1317.98608	-946.82581	
6148	61.470	-777.48267	17.33312	-649.04639	793.32159	15.58457	-626.40350	-707.85443	6.49951	487.52960	706.13361	2.68156	590.39587	17.61236	1317.93396	-947.53790	
6149	61.480	-777.20374	17.12682	-649.22479	793.42151	15.40768	-626.43231	-707.79773	6.63080	487.47638	706.40625	3.02044	590.09589	17.91092	1317.76563	-948.65833	
6150	61.490	-776.98029	16.85985	-649.12292	793.53558	15.16818	-626.36896	-707.76532	6.70418	487.43567	706.41168	3.15372	590.06647	17.70670	1317.38843	-949.56451	
6151	61.500	-776.79236	16.70203	-649.09131	793.59888	15.03833	-626.32617	-707.70630	6.77637	487.41125	706.49365	3.26214	590.10345	17.83652	1317.01453	-950.23901	
6152	61.510	-776.59485	16.49739	-648.99469	793.69855	14.99304	-626.34802	-707.57733	6.90948	487.42346	706.55005	3.27834	590.12677	18.00706	1316.96008	-950.73212	
6153	61.520	-776.52380	16.45987	-648.98010	793.98102	15.01771	-626.16693	-707.45819	6.97650	487.38989	706.61530	3.33477	590.10529	18.23250	1316.88770	-951.25513	
6154	61.530	-776.48303	16.45557	-649.05298	794.03339	15.02838	-626.24023	-707.38629	7.08275	487.20395	706.73346	3.29143	590.10870	18.43840	1316.99329	-951.63409	
6155	61.540	-776.41797	16.49643	-649.02039	794.13153	14.96893	-626.14465	-707.41687	7.36663	487.14554	706.78833	3.14744	590.20782	18.54885	1316.93982	-951.65009	
